<svg id="SvgjsSvg1001" width="288" height="288" xmlns="http://www.w3.org/2000/svg" version="1.1" xmlns:xlink="http://www.w3.org/1999/xlink" xmlns:svgjs="http://svgjs.com/svgjs"><defs id="SvgjsDefs1002"></defs><g id="SvgjsG1008" transform="matrix(1,0,0,1,0,0)"><svg xmlns="http://www.w3.org/2000/svg" width="288" height="288" version="1.0" viewBox="0 0 500 500"><g transform="matrix(.1 0 0 -.1 0 500)" fill="#482ff7" class="color000 svgShape"><path d="M2275 4490c-115-60-225-114-242-119-18-5-80-35-138-66l-104-56 45-97c79-167 128-262 136-262 7 0 47 18 246 111l82 39 0-245 0-245 200 0 200 0 0 245 0 245 83-39c198-93 238-111 245-111 8 0 57 95 136 262l45 97-104 56c-57 31-118 60-135 65-17 5-127 59-244 119-118 61-220 111-227 111-8 0-108-50-224-110zM1270 3988c-47-22-209-103-360-179l-275-138-3-481-2-480 205 0 205 0 0 245c0 135 2 245 5 245 4 0 47-19 240-110l81-38 41 82c77 153 133 277 129 284-2 4-55 34-118 66l-113 59 115 59c63 33 116 61 118 63 6 6-167 365-176 364-4 0-45-19-92-41zM3593 3948c-56-112-134-280-131-283 2-2 55-30 120-64l116-60-116-62c-65-34-118-63-120-64-3-3 67-154 131-281l41-82 81 38c193 91 236 110 240 110 3 0 5-110 5-245l0-245 205 0 205 0-2 480-3 481-275 138c-245 123-446 221-453 221-1 0-21-37-44-82zM1926 3117c-24-45-47-93-51-107-4-14-25-59-46-101l-37-75 121-61c67-34 182-90 255-124l132-63 0-248 0-248 200 0 200 0 0 248 0 248 133 63c72 34 187 90 254 124l121 61-27 55c-16 31-40 88-56 126-21 55-65 138-92 174-5 7-152-62-348-161l-181-92-109 57c-109 57-184 94-342 168l-82 38-45-82zM632 1810l3-481 275-138c300-151 451-224 454-219 33 51 77 135 86 164 7 22 31 74 52 117 22 43 38 80 37 81-16 14-219 116-230 116-9 0-23 6-33 13-17 12-10 19 75 72 52 33 96 62 99 66 3 4 75 50 160 104 85 53 157 99 159 101 2 2-21 41-51 86-31 46-79 121-108 168-29 47-54 87-56 89-1 2-54-31-116-72-162-107-304-195-346-214-21-9-40-19-44-21-5-2-8 98-8 222l0 226-205 0-205 0 2-480zM3960 2064c0-124-3-224-7-222-5 2-24 12-45 21-44 20-194 113-346 215-62 41-114 73-116 71-2-2-27-42-56-89-29-47-77-122-108-168-33-50-51-86-45-90 5-4 79-51 164-105 283-180 330-212 331-222 0-5-20-17-45-26-34-12-205-99-225-114-5-4 168-365 175-365 7 0 208 98 453 221l275 138 3 481 2 480-205 0-205 0 0-226zM2300 1310l0-350-82 39c-199 93-239 111-246 111-8 0-57-95-136-262l-45-97 104-56c57-31 118-60 135-65 16-5 129-59 250-122l220-113 220 113c121 63 234 117 250 122 17 5 78 34 135 65l104 56-45 97c-79 167-128 262-136 262-7 0-47-18-245-111l-83-39 0 350 0 350-200 0-200 0 0-350z" fill="#482ff7" class="color000 svgShape"></path></g></svg></g></svg>